<svg xmlns="http://www.w3.org/2000/svg" viewBox="-0.2 -0.2 126.4 100.4">
  <path d="M 0 0 L 16 0 C 40 0 40 32 16 32 L 8 32 L 8 60 L 0 60 Z M 0 0 C 0 0 0 0 0 0 M 8 8 L 16 8 C 28 8 28 24 16 24 L 8 24 L 8 8 M 48 0 L 60 0 L 80 52 L 80 0 L 88 0 L 88 60 L 76 60 L 56 8 L 56 60 L 48 60 L 48 0 M 104 0 L 108 0 L 115 12 L 122 0 L 126 0 L 118.421 13 L 126 26 L 122 26 L 115 14 L 108 26 L 104 26 L 111.5 13 L 104 0 L 104 0 M 0 92 L 88 92 L 88 100 L 0 100 L 0 92" stroke="#FFFFFF" stroke-width="0.2" fill="none"/>
</svg>